<svg xmlns="http://www.w3.org/2000/svg" viewBox="0 0 64 64" fill="none">
  <!-- 背景 -->
  <rect width="64" height="64" rx="12" fill="#18181B"/>
  
  <!-- 左上矩形节点 -->
  <rect x="8" y="10" width="18" height="12" rx="2" fill="#FAFAFA" stroke="#71717A" stroke-width="1"/>
  
  <!-- 右上矩形节点 -->
  <rect x="38" y="10" width="18" height="12" rx="2" fill="#FAFAFA" stroke="#71717A" stroke-width="1"/>
  
  <!-- 左下矩形节点 -->
  <rect x="8" y="42" width="18" height="12" rx="2" fill="#FAFAFA" stroke="#71717A" stroke-width="1"/>
  
  <!-- 右下圆形节点 -->
  <circle cx="47" cy="48" r="8" fill="#FAFAFA" stroke="#71717A" stroke-width="1"/>
  
  <!-- 连线: 左上 -> 中心 -->
  <path d="M17 22 L17 28 Q17 31 20 31 L28 31" stroke="#A1A1AA" stroke-width="1.5" stroke-linecap="round" fill="none"/>
  
  <!-- 连线: 右上 -> 中心 -->
  <path d="M47 22 L47 28 Q47 31 44 31 L36 31" stroke="#A1A1AA" stroke-width="1.5" stroke-linecap="round" fill="none"/>
  
  <!-- 连线: 中心 -> 左下 -->
  <path d="M28 33 L20 33 Q17 33 17 36 L17 42" stroke="#A1A1AA" stroke-width="1.5" stroke-linecap="round" fill="none"/>
  
  <!-- 连线: 中心 -> 右下 -->
  <path d="M36 33 L44 33 Q47 33 47 36 L47 40" stroke="#A1A1AA" stroke-width="1.5" stroke-linecap="round" fill="none"/>
  
  <!-- 中心连接点 -->
  <circle cx="32" cy="32" r="3" fill="#71717A"/>
  
  <!-- 箭头标记 -->
  <path d="M15 42 L17 39 L19 42" stroke="#A1A1AA" stroke-width="1" stroke-linecap="round" stroke-linejoin="round" fill="none"/>
  <path d="M45 40 L47 37 L49 40" stroke="#A1A1AA" stroke-width="1" stroke-linecap="round" stroke-linejoin="round" fill="none"/>
</svg>
